<mxfile host="app.diagrams.net" modified="2023-10-11T08:50:06.923Z" agent="Mozilla/5.0 (Macintosh; Intel Mac OS X 10_15_7) AppleWebKit/537.36 (KHTML, like Gecko) Chrome/117.0.0.0 Safari/537.36" etag="7B-5hcAwAHCnuwO5t4ef" version="22.0.4" type="github">
  <diagram name="Page-1" id="qu3MGMUDJWT_irGqxcrn">
    <mxGraphModel dx="774" dy="527" grid="1" gridSize="10" guides="1" tooltips="1" connect="1" arrows="1" fold="1" page="1" pageScale="1" pageWidth="850" pageHeight="1100" math="0" shadow="0">
      <root>
        <mxCell id="0" />
        <mxCell id="1" parent="0" />
      </root>
    </mxGraphModel>
  </diagram>
</mxfile>
